<?xml version="1.0" standalone="no"?><!DOCTYPE svg PUBLIC "-//W3C//DTD SVG 1.1//EN" "http://www.w3.org/Graphics/SVG/1.1/DTD/svg11.dtd"><svg t="1746590585422" class="icon" viewBox="0 0 1024 1024" version="1.1" xmlns="http://www.w3.org/2000/svg" p-id="5986" width="128" height="128" xmlns:xlink="http://www.w3.org/1999/xlink"><path d="M497.70151543 654.24526643l-54.97520664-80.1208175 35.25315991 96.88455738-109.21083802 15.77763896 109.21083802 15.77763698-42.15587644 82.83260048 60.15224502-63.35707754-3.94440974 149.64103442S222.57895453 746.69236457 372.21998895 470.09064925c0 0-186.86639824-206.09539546-17.50331712-333.05607439 0 0-288.92799401 174.54011954-105.75947976 474.06871409 0 0-151.61324026-147.91535626-72.23199801-297.8029164 0 0-137.3147557 193.76911481 29.82959772 407.01375255 0 0-45.85376046-28.10391763-86.28395875-135.58907563 0 0 29.58307201 319.99021852 387.53823151 324.18115395h7.14924229c357.9551595-4.19093546 387.5382315-324.18115394 387.53823152-324.18115395-40.43019637 107.48515796-86.28395684 135.58907562-86.28395687 135.58907563 167.39087723-213.24463771 30.07612156-407.01375251 30.07612156-407.01375255 79.38124033 149.88756017-72.23199803 297.80291639-72.23199804 297.8029164C957.22521926 311.57469247 668.29722524 137.28109869 668.29722524 137.28109869c169.11655542 126.96068089-17.5033171 333.0560744-17.50331709 333.0560763C800.43494258 746.69236457 530.98247147 871.9273653 530.98247147 871.9273653l-3.94440972-149.64103439 60.15224309 63.35707757-42.15587456-82.8326005 109.21083615-15.777637-109.21083615-15.77763891 35.25315803-96.88455739-54.97520668 80.12081746-13.8054331-535.70011155v-4.19093545 1.72567815-1.72567815 4.19093545l-13.8054331 535.45358584z m0 0" fill="#f4ea2a" p-id="5987"></path></svg>